<svg width="40" height="40" viewBox="0 0 40 40" fill="none" xmlns="http://www.w3.org/2000/svg">
<g clip-path="url(#clip0_360_233)">
<path opacity="0.3" d="M22.2333 7.7666L15 14.9999V31.6666H30L35 19.9999V16.6666H20.3833L22.2333 7.7666Z" fill="#1B1AFF"/>
<path d="M35 13.3334H24.4834L26.0667 5.71675L26.1167 5.18341C26.1167 4.50008 25.8334 3.86675 25.3834 3.41675L23.6167 1.66675L12.65 12.6501C12.0334 13.2501 11.6667 14.0834 11.6667 15.0001V31.6667C11.6667 33.5001 13.1667 35.0001 15 35.0001H30C31.3834 35.0001 32.5667 34.1667 33.0667 32.9667L38.1 21.2167C38.25 20.8334 38.3334 20.4334 38.3334 20.0001V16.6667C38.3334 14.8334 36.8334 13.3334 35 13.3334ZM35 20.0001L30 31.6667H15V15.0001L22.2334 7.76675L20.3834 16.6667H35V20.0001ZM1.66669 15.0001H8.33335V35.0001H1.66669V15.0001Z" fill="#1B1AFF"/>
</g>
<defs>
<clipPath id="clip0_360_233">
<rect width="40" height="40" fill="white"/>
</clipPath>
</defs>
</svg>
