<svg width="40" height="40" viewBox="0 0 40 40" fill="none" xmlns="http://www.w3.org/2000/svg">
<g clip-path="url(#clip0_360_237)">
<path d="M11.6667 8.33342H28.3333V11.6667H31.6667V5.00008C31.6667 3.16675 30.1667 1.68341 28.3333 1.68341L11.6667 1.66675C9.83332 1.66675 8.33332 3.16675 8.33332 5.00008V11.6667H11.6667V8.33342ZM25.6833 27.6501L33.3333 20.0001L25.6833 12.3501L23.3333 14.7167L28.6167 20.0001L23.3333 25.2834L25.6833 27.6501ZM16.6667 25.2834L11.3833 20.0001L16.6667 14.7167L14.3167 12.3501L6.66666 20.0001L14.3167 27.6501L16.6667 25.2834ZM28.3333 31.6667H11.6667V28.3334H8.33332V35.0001C8.33332 36.8334 9.83332 38.3334 11.6667 38.3334H28.3333C30.1667 38.3334 31.6667 36.8334 31.6667 35.0001V28.3334H28.3333V31.6667Z" fill="#1B1AFF"/>
</g>
<defs>
<clipPath id="clip0_360_237">
<rect width="40" height="40" fill="white"/>
</clipPath>
</defs>
</svg>
