<svg width="40" height="40" viewBox="0 0 40 40" fill="none" xmlns="http://www.w3.org/2000/svg">
<g clip-path="url(#clip0_360_240)">
<path opacity="0.3" d="M31.6667 8.33325H8.33333V31.6666H31.6667V8.33325ZM15 28.3333H11.6667V16.6666H15V28.3333ZM21.6667 28.3333H18.3333V11.6666H21.6667V28.3333ZM28.3333 28.3333H25V21.6666H28.3333V28.3333Z" fill="#1B1AFF"/>
<path d="M5 8.33333V31.6667C5 33.5 6.5 35 8.33333 35H31.6667C33.5 35 35 33.5 35 31.6667V8.33333C35 6.5 33.5 5 31.6667 5H8.33333C6.5 5 5 6.5 5 8.33333ZM8.33333 8.33333H31.6667V31.6667H8.33333V8.33333ZM11.6667 16.6667H15V28.3333H11.6667V16.6667ZM18.3333 11.6667H21.6667V28.3333H18.3333V11.6667ZM25 21.6667H28.3333V28.3333H25V21.6667Z" fill="#1B1AFF"/>
</g>
<defs>
<clipPath id="clip0_360_240">
<rect width="40" height="40" fill="white"/>
</clipPath>
</defs>
</svg>
