<svg width="138" height="44" viewBox="0 0 138 44" fill="none" xmlns="http://www.w3.org/2000/svg">
<rect width="80.7676" height="43.1372" fill="#1B1AFF"/>
<path d="M89.7585 12.3905L86.8949 1.45015H89.362L91.5207 10.6136H90.8599L93.136 1.45015H95.4856L97.7618 10.6136H97.101L99.2597 1.45015H101.727L98.8632 12.3905H96.2199L93.929 3.57947H94.6926L92.4018 12.3905H89.7585Z" fill="white"/>
<path d="M106.234 12.5667C105.441 12.5667 104.717 12.3856 104.061 12.0234C103.415 11.6611 102.896 11.1667 102.504 10.5402C102.123 9.90382 101.932 9.18425 101.932 8.38147C101.932 7.5689 102.123 6.84934 102.504 6.22277C102.896 5.59621 103.415 5.10182 104.061 4.73959C104.717 4.37736 105.441 4.19624 106.234 4.19624C107.027 4.19624 107.747 4.37736 108.393 4.73959C109.039 5.10182 109.553 5.59621 109.935 6.22277C110.327 6.84934 110.522 7.5689 110.522 8.38147C110.522 9.18425 110.327 9.90382 109.935 10.5402C109.553 11.1667 109.039 11.6611 108.393 12.0234C107.747 12.3856 107.027 12.5667 106.234 12.5667ZM106.234 10.5842C106.636 10.5842 106.983 10.4912 107.277 10.3052C107.58 10.1192 107.815 9.85976 107.982 9.5269C108.158 9.19404 108.246 8.81223 108.246 8.38147C108.246 7.95071 108.158 7.5738 107.982 7.25073C107.815 6.91787 107.58 6.65843 107.277 6.47242C106.983 6.27662 106.636 6.17872 106.234 6.17872C105.833 6.17872 105.481 6.27662 105.177 6.47242C104.874 6.65843 104.634 6.91787 104.457 7.25073C104.291 7.5738 104.208 7.95071 104.208 8.38147C104.208 8.81223 104.291 9.19404 104.457 9.5269C104.634 9.85976 104.874 10.1192 105.177 10.3052C105.481 10.4912 105.833 10.5842 106.234 10.5842Z" fill="white"/>
<path d="M111.82 12.3905V4.37246H113.876V6.2962L113.729 6.01718C113.905 5.34167 114.194 4.88644 114.596 4.65148C115.007 4.40673 115.491 4.28435 116.049 4.28435H116.519V6.1934H115.829C115.291 6.1934 114.855 6.35984 114.522 6.6927C114.189 7.01577 114.023 7.4759 114.023 8.07309V12.3905H111.82Z" fill="white"/>
<path d="M117.485 12.3905V1.27393H119.687V12.3905H117.485Z" fill="white"/>
<path d="M125.073 12.5667C124.29 12.5667 123.59 12.3807 122.973 12.0087C122.357 11.6366 121.867 11.1325 121.505 10.4961C121.153 9.85976 120.976 9.15488 120.976 8.38147C120.976 7.59827 121.157 6.89339 121.52 6.26683C121.882 5.63048 122.371 5.12629 122.988 4.75427C123.605 4.38225 124.295 4.19624 125.059 4.19624C125.646 4.19624 126.165 4.30883 126.615 4.534C127.075 4.74938 127.438 5.05776 127.702 5.45915L127.364 5.8997V1.27393H129.567V12.3905H127.511V10.922L127.717 11.3772C127.443 11.7688 127.071 12.0674 126.601 12.273C126.131 12.4688 125.622 12.5667 125.073 12.5667ZM125.338 10.5842C125.739 10.5842 126.092 10.4912 126.395 10.3052C126.699 10.1192 126.934 9.85976 127.1 9.5269C127.276 9.19404 127.364 8.81223 127.364 8.38147C127.364 7.95071 127.276 7.5689 127.1 7.23604C126.934 6.90318 126.699 6.64374 126.395 6.45773C126.092 6.27172 125.739 6.17872 125.338 6.17872C124.936 6.17872 124.574 6.27662 124.251 6.47242C123.938 6.65843 123.693 6.91787 123.517 7.25073C123.341 7.5738 123.252 7.95071 123.252 8.38147C123.252 8.81223 123.341 9.19404 123.517 9.5269C123.693 9.85976 123.938 10.1192 124.251 10.3052C124.574 10.4912 124.936 10.5842 125.338 10.5842Z" fill="white"/>
<path d="M93.1801 27.2517C92.3577 27.2517 91.5941 27.1098 90.8892 26.8258C90.1843 26.5419 89.5676 26.1454 89.0389 25.6364C88.52 25.1175 88.1138 24.5154 87.8201 23.8301C87.5264 23.1448 87.3795 22.4008 87.3795 21.598C87.3795 20.7952 87.5215 20.0512 87.8054 19.3659C88.0991 18.6806 88.5054 18.0834 89.0242 17.5743C89.5529 17.0652 90.1697 16.6687 90.8745 16.3848C91.5794 16.1009 92.3479 15.9589 93.1801 15.9589C94.0122 15.9589 94.7808 16.1009 95.4856 16.3848C96.1905 16.6687 96.8024 17.0652 97.3213 17.5743C97.8499 18.0834 98.2562 18.6806 98.5401 19.3659C98.8338 20.0512 98.9807 20.7952 98.9807 21.598C98.9807 22.4008 98.8338 23.1448 98.5401 23.8301C98.2464 24.5154 97.8352 25.1175 97.3066 25.6364C96.7877 26.1454 96.1758 26.5419 95.4709 26.8258C94.7661 27.1098 94.0024 27.2517 93.1801 27.2517ZM93.1801 25.1958C93.6794 25.1958 94.1395 25.1077 94.5605 24.9315C94.9912 24.7553 95.3682 24.5105 95.6912 24.1972C96.0143 23.8742 96.2639 23.4923 96.4402 23.0518C96.6164 22.6112 96.7045 22.1266 96.7045 21.598C96.7045 21.0693 96.6164 20.5896 96.4402 20.1589C96.2639 19.7183 96.0143 19.3365 95.6912 19.0134C95.3682 18.6903 94.9912 18.4456 94.5605 18.2792C94.1395 18.1029 93.6794 18.0148 93.1801 18.0148C92.6808 18.0148 92.2158 18.1029 91.785 18.2792C91.364 18.4456 90.992 18.6903 90.6689 19.0134C90.3459 19.3365 90.0962 19.7183 89.92 20.1589C89.7438 20.5896 89.6557 21.0693 89.6557 21.598C89.6557 22.1266 89.7438 22.6112 89.92 23.0518C90.0962 23.4923 90.3459 23.8742 90.6689 24.1972C90.992 24.5105 91.364 24.7553 91.785 24.9315C92.2158 25.1077 92.6808 25.1958 93.1801 25.1958Z" fill="white"/>
<path d="M100.433 27.0755V19.0575H102.489V20.6435L102.372 20.291C102.558 19.8113 102.856 19.4589 103.268 19.2337C103.689 18.9987 104.178 18.8813 104.736 18.8813C105.343 18.8813 105.872 19.0085 106.322 19.2631C106.782 19.5176 107.14 19.8749 107.394 20.3351C107.649 20.7854 107.776 21.3141 107.776 21.9211V27.0755H105.573V22.391C105.573 22.0777 105.51 21.8085 105.382 21.5833C105.265 21.3581 105.093 21.1819 104.868 21.0546C104.653 20.9274 104.398 20.8637 104.105 20.8637C103.821 20.8637 103.566 20.9274 103.341 21.0546C103.116 21.1819 102.94 21.3581 102.812 21.5833C102.695 21.8085 102.636 22.0777 102.636 22.391V27.0755H100.433Z" fill="white"/>
<path d="M109.224 27.0755V15.9589H111.427V27.0755H109.224Z" fill="white"/>
<path d="M113.039 27.0755V19.0575H115.242V27.0755H113.039ZM113.039 18.3379V16.1352H115.242V18.3379H113.039Z" fill="white"/>
<path d="M116.854 27.0755V19.0575H118.91V20.6435L118.792 20.291C118.978 19.8113 119.277 19.4589 119.688 19.2337C120.109 18.9987 120.598 18.8813 121.156 18.8813C121.763 18.8813 122.292 19.0085 122.742 19.2631C123.203 19.5176 123.56 19.8749 123.814 20.3351C124.069 20.7854 124.196 21.3141 124.196 21.9211V27.0755H121.993V22.391C121.993 22.0777 121.93 21.8085 121.803 21.5833C121.685 21.3581 121.514 21.1819 121.289 21.0546C121.073 20.9274 120.819 20.8637 120.525 20.8637C120.241 20.8637 119.987 20.9274 119.761 21.0546C119.536 21.1819 119.36 21.3581 119.233 21.5833C119.115 21.8085 119.056 22.0777 119.056 22.391V27.0755H116.854Z" fill="white"/>
<path d="M129.507 27.2517C128.655 27.2517 127.916 27.0657 127.289 26.6937C126.663 26.3119 126.178 25.8028 125.836 25.1664C125.493 24.5301 125.322 23.8252 125.322 23.0518C125.322 22.249 125.498 21.5343 125.85 20.9078C126.212 20.2812 126.697 19.7868 127.304 19.4246C127.911 19.0624 128.596 18.8813 129.36 18.8813C129.996 18.8813 130.559 18.9841 131.049 19.1896C131.538 19.3854 131.949 19.6645 132.282 20.0267C132.625 20.3889 132.884 20.8099 133.061 21.2896C133.237 21.7595 133.325 22.2735 133.325 22.8315C133.325 22.9882 133.315 23.1448 133.296 23.3014C133.286 23.4483 133.261 23.5756 133.222 23.6833H127.216V22.0679H131.974L130.931 22.8315C131.029 22.4106 131.024 22.0385 130.917 21.7155C130.809 21.3826 130.618 21.1232 130.344 20.9372C130.08 20.7414 129.752 20.6435 129.36 20.6435C128.978 20.6435 128.65 20.7365 128.376 20.9225C128.102 21.1085 127.896 21.3826 127.759 21.7448C127.622 22.1071 127.568 22.5476 127.598 23.0665C127.559 23.5168 127.612 23.9133 127.759 24.256C127.906 24.5986 128.131 24.8678 128.435 25.0636C128.738 25.2497 129.105 25.3427 129.536 25.3427C129.928 25.3427 130.261 25.2643 130.535 25.1077C130.819 24.9511 131.039 24.7357 131.196 24.4616L132.958 25.2986C132.801 25.6902 132.551 26.0329 132.209 26.3266C131.876 26.6203 131.479 26.8503 131.019 27.0168C130.559 27.1734 130.055 27.2517 129.507 27.2517Z" fill="white"/>
<path d="M92.9011 41.9367C92.1179 41.9367 91.3885 41.7948 90.713 41.5109C90.0473 41.2269 89.4648 40.8305 88.9655 40.3214C88.4662 39.8123 88.0746 39.2151 87.7907 38.5298C87.5166 37.8445 87.3795 37.0956 87.3795 36.283C87.3795 35.4704 87.5166 34.7215 87.7907 34.0362C88.0648 33.3411 88.4515 32.7439 88.9508 32.2446C89.4501 31.7355 90.0326 31.3439 90.6983 31.0698C91.3738 30.7859 92.1081 30.6439 92.9011 30.6439C93.6941 30.6439 94.4038 30.7761 95.0304 31.0404C95.6667 31.3048 96.2052 31.6572 96.6457 32.0978C97.0863 32.5383 97.3996 33.0278 97.5856 33.5663L95.5737 34.5355C95.3877 34.0068 95.0598 33.5712 94.5898 33.2285C94.1297 32.8761 93.5668 32.6999 92.9011 32.6999C92.2549 32.6999 91.6871 32.8516 91.1976 33.1551C90.7081 33.4586 90.3263 33.8795 90.0522 34.418C89.7878 34.9467 89.6557 35.5683 89.6557 36.283C89.6557 36.9977 89.7878 37.6242 90.0522 38.1627C90.3263 38.7011 90.7081 39.1221 91.1976 39.4256C91.6871 39.7291 92.2549 39.8808 92.9011 39.8808C93.5668 39.8808 94.1297 39.7095 94.5898 39.3668C95.0598 39.0144 95.3877 38.5739 95.5737 38.0452L97.5856 39.0144C97.3996 39.5529 97.0863 40.0424 96.6457 40.4829C96.2052 40.9235 95.6667 41.2759 95.0304 41.5402C94.4038 41.8046 93.6941 41.9367 92.9011 41.9367Z" fill="white"/>
<path d="M102.721 41.9367C101.928 41.9367 101.203 41.7556 100.547 41.3934C99.9013 41.0311 99.3825 40.5368 98.9909 39.9102C98.6091 39.2738 98.4182 38.5543 98.4182 37.7515C98.4182 36.9389 98.6091 36.2194 98.9909 35.5928C99.3825 34.9662 99.9013 34.4718 100.547 34.1096C101.203 33.7474 101.928 33.5663 102.721 33.5663C103.514 33.5663 104.233 33.7474 104.88 34.1096C105.526 34.4718 106.04 34.9662 106.421 35.5928C106.813 36.2194 107.009 36.9389 107.009 37.7515C107.009 38.5543 106.813 39.2738 106.421 39.9102C106.04 40.5368 105.526 41.0311 104.88 41.3934C104.233 41.7556 103.514 41.9367 102.721 41.9367ZM102.721 39.9542C103.122 39.9542 103.47 39.8612 103.764 39.6752C104.067 39.4892 104.302 39.2298 104.468 38.8969C104.645 38.5641 104.733 38.1823 104.733 37.7515C104.733 37.3207 104.645 36.9438 104.468 36.6208C104.302 36.2879 104.067 36.0285 103.764 35.8424C103.47 35.6466 103.122 35.5487 102.721 35.5487C102.319 35.5487 101.967 35.6466 101.664 35.8424C101.36 36.0285 101.12 36.2879 100.944 36.6208C100.778 36.9438 100.694 37.3207 100.694 37.7515C100.694 38.1823 100.778 38.5641 100.944 38.8969C101.12 39.2298 101.36 39.4892 101.664 39.6752C101.967 39.8612 102.319 39.9542 102.721 39.9542Z" fill="white"/>
<path d="M111.185 41.9367C110.539 41.9367 109.986 41.7997 109.525 41.5255C109.075 41.2416 108.732 40.85 108.497 40.3507C108.263 39.8515 108.145 39.2689 108.145 38.6032V33.7425H110.348V38.427C110.348 38.7305 110.407 38.9997 110.524 39.2347C110.651 39.4599 110.827 39.6361 111.053 39.7633C111.278 39.8906 111.532 39.9542 111.816 39.9542C112.11 39.9542 112.365 39.8906 112.58 39.7633C112.805 39.6361 112.976 39.4599 113.094 39.2347C113.221 38.9997 113.285 38.7305 113.285 38.427V33.7425H115.488V41.7605H113.432V40.1745L113.549 40.527C113.363 41.0067 113.06 41.364 112.639 41.599C112.227 41.8241 111.743 41.9367 111.185 41.9367Z" fill="white"/>
<path d="M117.097 41.7605V33.7425H119.153V35.6662L119.007 35.3872C119.183 34.7117 119.472 34.2565 119.873 34.0215C120.284 33.7768 120.769 33.6544 121.327 33.6544H121.797V35.5634H121.107C120.568 35.5634 120.132 35.7299 119.8 36.0627C119.467 36.3858 119.3 36.8459 119.3 37.4431V41.7605H117.097Z" fill="white"/>
<path d="M125.905 41.9367C125.024 41.9367 124.255 41.7311 123.599 41.32C122.953 40.899 122.512 40.3361 122.278 39.6312L123.893 38.8676C124.098 39.2983 124.377 39.6361 124.73 39.8808C125.082 40.1256 125.474 40.2479 125.905 40.2479C126.218 40.2479 126.458 40.1843 126.624 40.057C126.791 39.9298 126.874 39.7536 126.874 39.5284C126.874 39.4109 126.845 39.313 126.786 39.2347C126.727 39.1466 126.639 39.0683 126.521 38.9997C126.404 38.9312 126.257 38.8725 126.081 38.8235L124.715 38.4417C124.059 38.2557 123.555 37.9571 123.203 37.5459C122.85 37.1249 122.674 36.6305 122.674 36.0627C122.674 35.5634 122.801 35.1278 123.056 34.7558C123.31 34.3837 123.668 34.0949 124.128 33.8893C124.588 33.674 125.117 33.5663 125.714 33.5663C126.497 33.5663 127.182 33.7523 127.77 34.1243C128.367 34.4865 128.788 35.0005 129.033 35.6662L127.403 36.4298C127.285 36.097 127.07 35.8327 126.756 35.6369C126.453 35.4313 126.105 35.3285 125.714 35.3285C125.43 35.3285 125.205 35.3872 125.038 35.5047C124.882 35.6222 124.803 35.7837 124.803 35.9893C124.803 36.097 124.833 36.1949 124.891 36.283C124.95 36.3711 125.043 36.4494 125.17 36.518C125.308 36.5865 125.474 36.6501 125.67 36.7089L126.947 37.0907C127.613 37.2865 128.122 37.5851 128.475 37.9865C128.827 38.3781 129.003 38.8627 129.003 39.4403C129.003 39.9396 128.871 40.3752 128.607 40.7472C128.352 41.1193 127.995 41.413 127.535 41.6283C127.075 41.8339 126.531 41.9367 125.905 41.9367Z" fill="white"/>
<path d="M134.182 41.9367C133.33 41.9367 132.591 41.7507 131.964 41.3787C131.338 40.9969 130.853 40.4878 130.511 39.8514C130.168 39.2151 129.997 38.5102 129.997 37.7368C129.997 36.934 130.173 36.2194 130.525 35.5928C130.888 34.9662 131.372 34.4718 131.979 34.1096C132.586 33.7474 133.271 33.5663 134.035 33.5663C134.671 33.5663 135.234 33.6691 135.724 33.8747C136.213 34.0705 136.625 34.3495 136.957 34.7117C137.3 35.0739 137.559 35.4949 137.736 35.9746C137.912 36.4445 138 36.9585 138 37.5165C138 37.6732 137.99 37.8298 137.971 37.9865C137.961 38.1333 137.936 38.2606 137.897 38.3683H131.891V36.7529H136.649L135.606 37.5165C135.704 37.0956 135.699 36.7235 135.592 36.4005C135.484 36.0676 135.293 35.8082 135.019 35.6222C134.755 35.4264 134.427 35.3285 134.035 35.3285C133.653 35.3285 133.325 35.4215 133.051 35.6075C132.777 35.7935 132.571 36.0676 132.434 36.4298C132.297 36.7921 132.243 37.2326 132.273 37.7515C132.234 38.2018 132.288 38.5983 132.434 38.941C132.581 39.2836 132.806 39.5529 133.11 39.7487C133.413 39.9347 133.781 40.0277 134.211 40.0277C134.603 40.0277 134.936 39.9494 135.21 39.7927C135.494 39.6361 135.714 39.4207 135.871 39.1466L137.633 39.9836C137.476 40.3752 137.227 40.7179 136.884 41.0116C136.551 41.3053 136.155 41.5353 135.694 41.7018C135.234 41.8584 134.73 41.9367 134.182 41.9367Z" fill="white"/>
<path d="M13.5285 32.5583L7.80139 10.6776H12.7356L17.0529 29.0045H15.7313L20.2837 10.6776H24.9829L29.5352 29.0045H28.2136L32.531 10.6776H37.4651L31.738 32.5583H26.4514L21.8696 14.9363H23.3969L18.8152 32.5583H13.5285Z" fill="white"/>
<path d="M44.2406 32.9107C42.5959 32.9107 41.0687 32.6268 39.6589 32.059C38.2492 31.4912 37.0156 30.6982 35.9583 29.68C34.9206 28.6423 34.108 27.4381 33.5206 26.0675C32.9332 24.6969 32.6395 23.2088 32.6395 21.6033C32.6395 19.9977 32.9234 18.5096 33.4912 17.139C34.0786 15.7684 34.8912 14.5741 35.9289 13.5559C36.9862 12.5377 38.2198 11.7447 39.6295 11.1769C41.0393 10.6091 42.5763 10.3252 44.2406 10.3252C45.9049 10.3252 47.442 10.6091 48.8517 11.1769C50.2615 11.7447 51.4852 12.5377 52.523 13.5559C53.5803 14.5741 54.3929 15.7684 54.9607 17.139C55.5481 18.5096 55.8418 19.9977 55.8418 21.6033C55.8418 23.2088 55.5481 24.6969 54.9607 26.0675C54.3733 27.4381 53.5509 28.6423 52.4936 29.68C51.4559 30.6982 50.2321 31.4912 48.8224 32.059C47.4126 32.6268 45.8854 32.9107 44.2406 32.9107ZM44.2406 28.7989C45.2392 28.7989 46.1595 28.6227 47.0014 28.2703C47.8629 27.9178 48.6168 27.4283 49.2629 26.8018C49.9091 26.1556 50.4083 25.392 50.7608 24.5109C51.1132 23.6298 51.2894 22.6606 51.2894 21.6033C51.2894 20.546 51.1132 19.5865 50.7608 18.725C50.4083 17.8439 49.9091 17.0803 49.2629 16.4342C48.6168 15.788 47.8629 15.2985 47.0014 14.9657C46.1595 14.6132 45.2392 14.437 44.2406 14.437C43.2421 14.437 42.312 14.6132 41.4505 14.9657C40.6086 15.2985 39.8645 15.788 39.2184 16.4342C38.5722 17.0803 38.0729 17.8439 37.7205 18.725C37.3681 19.5865 37.1918 20.546 37.1918 21.6033C37.1918 22.6606 37.3681 23.6298 37.7205 24.5109C38.0729 25.392 38.5722 26.1556 39.2184 26.8018C39.8645 27.4283 40.6086 27.9178 41.4505 28.2703C42.312 28.6227 43.2421 28.7989 44.2406 28.7989Z" fill="white"/>
<path d="M63.5934 32.9107C62.027 32.9107 60.5683 32.6268 59.2173 32.059C57.8858 31.4912 56.7208 30.6982 55.7223 29.68C54.7237 28.6619 53.9405 27.4675 53.3727 26.0969C52.8244 24.7263 52.5503 23.2284 52.5503 21.6033C52.5503 19.9781 52.8244 18.4803 53.3727 17.1097C53.9209 15.7195 54.6943 14.5251 55.6929 13.5265C56.6915 12.5084 57.8565 11.7252 59.1879 11.1769C60.5389 10.6091 62.0074 10.3252 63.5934 10.3252C65.1794 10.3252 66.599 10.5895 67.8521 11.1182C69.1248 11.6468 70.2017 12.3517 71.0828 13.2328C71.9639 14.1139 72.5904 15.0929 72.9625 16.1698L68.9388 18.1083C68.5668 17.0509 67.9108 16.1796 66.971 15.4943C66.0507 14.7894 64.9249 14.437 63.5934 14.437C62.3011 14.437 61.1655 14.7405 60.1865 15.3475C59.2075 15.9545 58.4439 16.7964 57.8956 17.8733C57.367 18.9306 57.1026 20.1739 57.1026 21.6033C57.1026 23.0326 57.367 24.2857 57.8956 25.3626C58.4439 26.4396 59.2075 27.2815 60.1865 27.8885C61.1655 28.4955 62.3011 28.7989 63.5934 28.7989C64.9249 28.7989 66.0507 28.4563 66.971 27.771C67.9108 27.0661 68.5668 26.185 68.9388 25.1277L72.9625 27.0661C72.5904 28.143 71.9639 29.122 71.0828 30.0031C70.2017 30.8842 69.1248 31.5891 67.8521 32.1178C66.599 32.6464 65.1794 32.9107 63.5934 32.9107Z" fill="white"/>
</svg>
